<?xml version="1.0" standalone="no"?><!DOCTYPE svg PUBLIC "-//W3C//DTD SVG 1.1//EN" "http://www.w3.org/Graphics/SVG/1.1/DTD/svg11.dtd"><svg t="1740368333949" class="icon" viewBox="0 0 1024 1024" version="1.1" xmlns="http://www.w3.org/2000/svg" p-id="1127" xmlns:xlink="http://www.w3.org/1999/xlink" width="200" height="200"><path d="M584.12401744 85.33333332c25.62304 0 49.344853 17.501867 53.482667 42.765653a51.452587 51.452587 0 0 1-46.980267 59.907414l-3.726506 0.128H182.94044444c-7.709867 0-12.772693 7.65952-10.331307 14.521173l0.873814 1.85088L505.81447144 780.11733332c3.82976 6.6304 12.8512 7.222613 17.60512 1.79968l1.28512-1.79968 198.432426-343.665493c13.441707-23.258453 42.4576-34.824533 67.001174-23.773014a51.400533 51.400533 0 0 1 25.314986 69.211307l-1.798826 3.444053-248.086187 429.710507a58.28864 58.28864 0 0 1-50.269867 29.041493c-19.275093 0-37.265067-9.637547-47.982933-25.391786l-2.338133-3.752107L36.19100444 172.40576032a58.210987 58.210987 0 0 1 0-58.030934A58.23744 58.23744 0 0 1 82.11825744 85.51253332L86.48732444 85.33333332h497.636693z m32.896 234.362027c20.97152 0 34.438827 21.691733 26.0608 40.221013l-1.36192 2.62144-92.95872 161.038507a28.578133 28.578133 0 0 1-47.597226 2.852693l-1.875627-2.827093L406.32860444 362.53866632a28.578133 28.578133 0 0 1 21.794133-42.688l2.929494-0.154453h185.967786zM944.03185744 85.33333332c20.714667 0 39.93856 11.127467 50.295467 29.041493 9.509547 16.4992 10.228907 36.75136 2.158933 53.84192l-2.210133 4.189867-101.7216 176.226987a51.323733 51.323733 0 0 1-76.433067 14.597973c-19.300693-15.163733-23.64416-42.5856-13.184-64.585387l2.133334-4.06016 51.99104-90.079573a10.922667 10.922667 0 0 0-7.401814-16.192l-2.05568-0.1792H757.19025744c-25.59744 0-49.344853-17.501867-53.457066-42.765653A51.478187 51.478187 0 0 1 750.76551144 85.48693332L754.44081744 85.33333332h189.56544z" fill="#ffffff" p-id="1128"></path></svg>