<?xml version="1.0" standalone="no"?><!DOCTYPE svg PUBLIC "-//W3C//DTD SVG 1.1//EN" "http://www.w3.org/Graphics/SVG/1.1/DTD/svg11.dtd"><svg t="1740551409918" class="icon" viewBox="0 0 1024 1024" version="1.1" xmlns="http://www.w3.org/2000/svg" p-id="1434" xmlns:xlink="http://www.w3.org/1999/xlink" width="200" height="200"><path d="M1023.296484 346.833552c0-71.37493-56.281307-129.127225-125.929424-129.127225h-425.947161V90.178003a27.245269 27.245269 0 0 0-37.350322-25.582412h-99.131847A98.939979 98.939979 0 0 0 242.841047 0h-143.901068C44.321529 0 0 45.408781 0 101.434264c0 56.025482 44.321529 101.434264 98.939979 101.434264h143.901068c48.414715 0 88.707014-35.815377 97.213166-83.014927h77.386796v98.492286c-226.212479-0.63956-239.579289 47.583286-239.579289 128.359753 0 80.776466 42.402848 113.457998 98.939979 126.121291V540.428455c-54.61845 0-98.939979 45.408781-98.939979 101.434264 0 56.025482 44.321529 101.370308 98.939979 101.370308h143.901068c28.652302 0 54.362626-12.535382 72.526138-32.617575a26.605709 26.605709 0 0 0 15.349447 4.98857h80.968335v70.543502a124.714259 124.714259 0 0 0-69.903941 112.626569c0 68.688776 54.362626 124.522391 121.388545 124.522391h260.876647C968.869902 1023.296484 1023.296484 967.462869 1023.296484 898.774093c0-68.752732-54.362626-124.522391-121.388546-124.522391h-258.382362v-88.387234a27.245269 27.245269 0 0 0-37.286365-25.582412h-88.259322a99.131847 99.131847 0 0 0 1.662857-18.419337c0-56.089439-44.321529-101.434264-98.939979-101.434264H330.780588V475.832865h566.650428C966.887265 475.832865 1023.296484 418.016614 1023.296484 346.769596z m-382.265193 501.415277h260.876647c27.309225 0 49.438011 22.768347 49.438012 50.781088a50.141528 50.141528 0 0 1-49.438012 50.717132h-260.876647a50.141528 50.141528 0 0 1-49.438011-50.717132c0-28.012741 22.128786-50.781088 49.438011-50.781088zM303.791144 402.027606a54.682406 54.682406 0 0 1-53.97889-55.321966c0-30.507026 24.175379-55.321966 53.97889-55.321966h593.575916c29.80351 0 53.97889 24.81494 53.97889 55.321966a54.682406 54.682406 0 0 1-53.97889 55.321966H303.791144z" fill="#ffffff" p-id="1435"></path></svg>