<?xml version="1.0" standalone="no"?><!DOCTYPE svg PUBLIC "-//W3C//DTD SVG 1.1//EN" "http://www.w3.org/Graphics/SVG/1.1/DTD/svg11.dtd"><svg t="1740569068946" class="icon" viewBox="0 0 1024 1024" version="1.1" xmlns="http://www.w3.org/2000/svg" p-id="1559" xmlns:xlink="http://www.w3.org/1999/xlink" width="200" height="200"><path d="M853.333333 128a42.666667 42.666667 0 0 1 42.666667 42.666667v597.333333a42.666667 42.666667 0 0 1-42.666667 42.666667H298.666667a42.666667 42.666667 0 0 1-42.666667-42.666667v-192.085333h85.333333V725.333333h469.333334V213.333333H341.333333v149.376H256V170.666667a42.666667 42.666667 0 0 1 42.666667-42.666667h554.666666z" fill="#ffffff" p-id="1560"></path><path d="M597.333333 256l298.666667-85.333333v640l-298.666667 85.333333z" fill="#ffffff" p-id="1561"></path><path d="M128 426.666667h298.666667v85.333333H128z" fill="#ffffff" p-id="1562"></path><path d="M403.242667 341.333333l141.44 128-141.44 128z" fill="#ffffff" p-id="1563"></path></svg>