<?xml version="1.0" standalone="no"?><!DOCTYPE svg PUBLIC "-//W3C//DTD SVG 1.1//EN" "http://www.w3.org/Graphics/SVG/1.1/DTD/svg11.dtd"><svg t="1744118310584" class="icon" viewBox="0 0 1024 1024" version="1.1" xmlns="http://www.w3.org/2000/svg" p-id="1817" xmlns:xlink="http://www.w3.org/1999/xlink" width="200" height="200"><path d="M1003.66563555 558.60337778H928.51768889V104.22044445c0-25.04931555-9.90321778-47.76846222-25.63185778-65.2447289l-1.16508444-0.58254222c-17.47626667-17.47626667-40.19541333-27.96202667-66.40981334-27.96202666H188.68906667c-51.26371555 0.58254222-93.20675555 41.94304-93.20675556 93.78929778v454.96547555H20.33436445c-22.71914667 0-40.77795555 18.05880889-40.77795556 40.77795555v372.82702223c0 22.71914667 18.05880889 40.77795555 40.77795556 40.77795555h983.3312711c22.13660445 0 40.19541333-18.05880889 40.19541334-40.77795555v-372.82702223c0.58254222-23.30168889-17.47626667-41.36049778-40.19541334-41.36049777z m-859.24977777-454.96547556c0-11.65084445 5.24288-23.30168889 13.39847111-31.45728s19.22389333-12.81592889 30.87473778-12.81592889h646.62186666c11.65084445 0 23.30168889 4.66033778 31.45728 12.81592889l1.16508445 1.74762667c7.57304889 8.73813333 11.65084445 19.22389333 11.65084444 30.29219556v454.38293333h-116.50844444c-20.38897778 0-37.28270222 14.56355555-40.77795556 34.36999111-7.57304889 50.09863111-33.20490667 95.53692445-72.23523555 128.15928889a210.85752889 210.85752889 0 0 1-277.29009778 0c-37.28270222-30.87473778-63.49710222-75.73048889-71.65269334-125.24657778-1.16508445-20.97152-19.22389333-37.28270222-40.77795555-37.28270222H144.41585778V103.63790222z m818.47182222 827.79249778H61.69486222v-291.27111111h166.60707556c15.72864 56.50659555 47.76846222 106.02268445 92.04167111 144.47047111 53.59388445 45.43829333 121.75132445 71.07015111 192.23893333 70.48760889 70.48760889 0.58254222 138.06250667-24.46677333 191.65639111-70.48760889 43.69066667-37.86524445 76.31303111-87.96387555 92.04167112-144.47047111H963.47022222v291.27111111z" fill="#ffffff" p-id="1818"></path><path d="M270.24497778 334.90716445h483.51004444c16.31118222 0 29.70965333-13.39847111 29.70965333-29.70965334s-13.39847111-29.70965333-29.70965333-29.70965333H270.24497778c-16.31118222 0-29.70965333 13.39847111-29.70965333 29.70965333s13.39847111 29.70965333 29.70965333 29.70965334z m0.58254222-119.42115556h481.76241778c16.31118222 0 29.70965333-13.39847111 29.70965333-29.70965334s-13.39847111-29.70965333-29.70965333-29.70965333H270.82752c-16.31118222 0-29.70965333 13.39847111-29.70965333 29.70965333s13.39847111 29.70965333 29.70965333 29.70965334zM536.46677333 462.48391111c16.31118222 0 29.70965333-13.39847111 29.70965334-29.70965333s-13.39847111-29.70965333-29.70965334-29.70965333H270.82752c-16.31118222 0-29.70965333 13.39847111-29.70965333 29.70965333s13.39847111 29.70965333 29.70965333 29.70965333h265.63925333z" fill="#ffffff" p-id="1819"></path></svg>