<?xml version="1.0" standalone="no"?><!DOCTYPE svg PUBLIC "-//W3C//DTD SVG 1.1//EN" "http://www.w3.org/Graphics/SVG/1.1/DTD/svg11.dtd"><svg t="1744118077063" class="icon" viewBox="0 0 1024 1024" version="1.1" xmlns="http://www.w3.org/2000/svg" p-id="1816" xmlns:xlink="http://www.w3.org/1999/xlink" width="200" height="200"><path d="M816.28 480H543.72v-80H742.5a95.69 95.69 0 0 0 65.5-25.82l89-83.09a48 48 0 0 0 0-70.18l-89-83.09A95.69 95.69 0 0 0 742.5 112H207.72a96.11 96.11 0 0 0-96 96v96a96.11 96.11 0 0 0 96 96h272v80H281.5a95.69 95.69 0 0 0-65.5 25.82l-89 83.09a48 48 0 0 0 0 70.18l89 83.09A95.69 95.69 0 0 0 281.5 768h198.22v112a32 32 0 0 0 64 0V768h272.56a96.11 96.11 0 0 0 96-96v-96a96.11 96.11 0 0 0-96-96zM175.72 304v-96a32 32 0 0 1 32-32H742.5a31.88 31.88 0 0 1 21.83 8.61l76.5 71.39-76.5 71.39A31.88 31.88 0 0 1 742.5 336H207.72a32 32 0 0 1-32-32z m672.56 368a32 32 0 0 1-32 32H281.5a31.88 31.88 0 0 1-21.83-8.61L183.17 624l76.5-71.39A31.88 31.88 0 0 1 281.5 544h534.78a32 32 0 0 1 32 32z" fill="#ffffff" p-id="1817"></path></svg>