<?xml version="1.0" standalone="no"?><!DOCTYPE svg PUBLIC "-//W3C//DTD SVG 1.1//EN" "http://www.w3.org/Graphics/SVG/1.1/DTD/svg11.dtd"><svg t="1744118169002" class="icon" viewBox="0 0 1024 1024" version="1.1" xmlns="http://www.w3.org/2000/svg" p-id="1816" xmlns:xlink="http://www.w3.org/1999/xlink" width="200" height="200"><path d="M185.45 159.56l680.9 680.9-30.25 30.26-680.91-680.91z m505 247.32q-3.2 112.8-38.81 194.12a513.36 513.36 0 0 0 71.64 101.22l-21.7 25.42a497.67 497.67 0 0 1-67-92.44 315 315 0 0 1-80.88 91.5l-18.06-28.16A268.34 268.34 0 0 0 617 602.38a695.24 695.24 0 0 1-50.84-137.72q-10.75 14.8-22.17 29.1l-20.33-25.42q49.89-62.4 67.92-168.71l33.3 5.57a654.77 654.77 0 0 1-17.15 69.8h114.18v31.92z m-94.24 0c-4.37 9.85-7.58 16.95-9.76 21.27a708 708 0 0 0 46.69 136.78q24.08-67 26.84-158zM486.66 524.27l2.73-79.94H375.25q-1.86 33.71-5.09 79.94z m-5.1 110q2.31-30.93 4.15-80.88H367.38q-5.07 46.22-11.56 80.88z m-73.95-73q26.77 25.43 44.38 49l-18.06 18c-10.44-14.81-25.25-31.24-44.34-49.47l18-17.55z m6-110.93a353.35 353.35 0 0 1 47.59 48.53l-18.48 18q-17.14-22.67-47.64-49l18.49-17.55z m103.57 73.95h30.9v29.11h-31.85l-3.72 80.88h31.92v29.62h-34.24q-1.14 10.47-3.21 20.8A54.14 54.14 0 0 1 483.4 717c-11.38 6.42-28.2 9.68-50.37 9.68l-16.65 0.47-10.18-30.92c11.12 1.2 18.49 1.84 22.21 1.84a110.4 110.4 0 0 0 29.59-3.72c8.95-3.38 15.24-10.14 19-20.33l1.84-10.14H318.85q10.2-54.57 16.65-110.5h-31.89v-29.11h34.67q5.07-54.56 6.46-102.62-9.08 9.19-18.49 18.06L301.3 418q50.4-43.47 75.32-118.34l32.36 13q-9.69 24-13.4 32.35h137.3v31.42H378.93a348.17 348.17 0 0 1-27.26 37.92h169.18q-3.21 103.09-3.64 110z m1.71 0.61c-0.21 3.14-0.42 3.14-0.42 0zM204.15 128.48h616.28c42.54 0 77 43.1 77 96.3v577.76c0 53.16-34.5 96.3-77 96.3H204.15c-42.54 0-77-43.14-77-96.3v-597a77 77 0 0 1 77-77z m0 38.52a38.53 38.53 0 0 0-38.52 38.52v597c0 33.56 19.39 57.78 38.52 57.78h616.28c19.13 0 38.52-24.22 38.52-57.78V224.78c0-33.6-19.39-57.78-38.52-57.78z" fill="#ffffff" p-id="1817"></path></svg>