<?xml version="1.0" standalone="no"?><!DOCTYPE svg PUBLIC "-//W3C//DTD SVG 1.1//EN" "http://www.w3.org/Graphics/SVG/1.1/DTD/svg11.dtd"><svg t="1754486061739" class="icon" viewBox="0 0 1024 1024" version="1.1" xmlns="http://www.w3.org/2000/svg" p-id="1851" xmlns:xlink="http://www.w3.org/1999/xlink" width="200" height="200"><path d="M706.048 752.128h-391.168c-14.336 0-24.064 9.728-24.064 24.064s9.728 24.064 24.064 24.064h391.168c14.336 0 24.064-9.728 24.064-24.064-0.512-14.848-9.728-24.064-24.064-24.064zM417.28 428.032h-22.016c-5.632 1.024-9.216 4.096-10.752 9.216-2.048 6.144-2.56 13.312-2.56 22.528-0.512 2.56-0.512 5.632 1.024 7.168 1.024 1.024 3.072 1.536 6.144 1.024l3.072-0.512v1.024c1.536 0 4.096 0 10.24-0.512 9.728-1.536 12.288-1.536 13.312-1.536 2.56 0 6.656-1.024 8.704-10.24v-19.968c-0.512-2.048-1.536-5.632-7.168-8.192zM546.304 431.104c-2.56 0-8.704 0.512-17.92 1.536h-12.8c-8.192 2.048-12.8 7.68-13.312 17.92 0 2.048 0.512 19.968 1.536 48.64 25.088-2.048 41.472-8.704 48.128-18.432 3.584-10.24 5.632-21.504 5.632-34.816-0.512-11.776-6.656-14.336-11.264-14.848z" fill="#ffffff" p-id="1852"></path><path d="M796.672 217.6c-14.336 0-24.064 9.728-24.064 24.064v553.472c0 24.064-24.064 47.616-47.616 47.616h-419.84c-28.672 0-61.952-24.064-61.952-47.616V742.4c0-24.064 28.672-38.4 57.344-38.4h400.896c14.336 0 24.064-9.728 24.064-24.064v-467.456c0-52.224-38.4-86.016-95.232-86.016h-324.608c-52.224 0-104.96 28.672-104.96 86.016V814.08c4.608 43.008 47.616 76.288 90.624 80.896h434.176c52.224 0 95.232-43.008 95.232-90.624V241.664c-0.512-9.728-9.728-24.064-24.064-24.064z m-342.016 214.528v0.512l-0.512 0.512c-1.024 2.048-3.584 8.192-6.656 25.6-1.024 9.216-2.048 15.872-3.072 20.48-0.512 5.632-2.56 9.728-6.144 11.776-4.608 2.56-10.752 2.56-18.944-0.512-19.456-3.584-33.792 1.536-42.496 15.872l-1.024 1.024c-3.584 2.56-7.168 3.584-9.728 3.584-1.536 0-2.56-0.512-3.584-1.024-3.584-1.536-5.632-5.632-6.144-12.8 0-1.536 0.512-26.112 1.536-71.68 1.024-9.728 4.096-15.36 8.704-17.92 3.584-2.048 7.68-2.048 12.288 0 9.728 5.12 28.16 4.608 54.272 0h1.024c14.336 1.024 21.504 9.728 20.48 24.576zM399.36 373.76l0.512-1.024c6.144-12.288 16.896-18.944 32.256-19.968h1.024c12.288 2.048 27.136 3.072 44.032 3.072 14.848 0 27.136-1.024 35.328-3.072 17.92-1.024 26.112 1.024 27.648 6.656v0.512l-0.512 0.512c-4.096 11.264-12.8 17.408-25.088 17.408-41.472-2.048-69.632-1.024-83.968 3.072-6.656 2.56-12.288 4.096-16.896 4.096-3.072 0-5.632-0.512-7.68-1.536-3.072-1.536-5.12-4.608-6.144-8.704l-0.512-1.024z m188.416 61.952l-0.512 1.536-1.536 0.512s-2.56 1.024-1.024 12.8v1.024c-3.072 19.968-5.632 33.792-8.704 40.96l-0.512 0.512c-15.36 17.92-39.936 28.16-72.704 30.208-1.536 12.288-2.048 21.504-1.024 28.16-1.024 22.016-5.12 32.768-13.824 33.792h-1.024c-9.216-2.56-12.288-13.312-10.24-33.792l1.536-68.608c0-26.624-2.56-45.056-7.168-54.784l-0.512-0.512v-0.512c0.512-7.68 3.072-13.824 7.68-16.896 5.632-4.096 13.312-4.608 24.064-2.56h1.024l0.512 1.024c3.584 5.12 16.896 9.728 60.416 2.048h1.024c9.728 1.024 16.384 4.608 19.968 9.728 3.584 3.584 4.096 9.216 2.56 15.36z m-281.6-48.128c1.024-2.56 4.096-4.608 9.216-6.144 46.08-14.336 92.672-49.152 139.264-103.424 4.096-5.632 8.192-8.192 13.312-8.192 5.632-0.512 10.752 3.072 16.384 9.728 61.44 47.616 116.736 83.456 164.352 107.008 2.56 1.536 4.096 3.072 5.632 5.632v1.024c0 3.072-3.072 4.608-4.096 5.12-14.336 8.704-26.112 12.8-36.352 12.8-7.168 0-13.312-2.56-18.432-7.168-18.944-25.088-56.32-56.832-111.616-94.72-12.288-8.704-21.504-8.704-28.16-0.512-43.008 47.104-82.944 78.848-118.272 95.744-8.192 4.096-15.36 5.12-20.48 2.56-4.608-2.048-8.192-6.656-10.24-13.824-1.536-2.048-1.024-4.608-0.512-5.632z" fill="#ffffff" p-id="1853"></path></svg>