<?xml version="1.0" standalone="no"?><!DOCTYPE svg PUBLIC "-//W3C//DTD SVG 1.1//EN" "http://www.w3.org/Graphics/SVG/1.1/DTD/svg11.dtd"><svg t="1744118236443" class="icon" viewBox="0 0 1024 1024" version="1.1" xmlns="http://www.w3.org/2000/svg" p-id="1816" xmlns:xlink="http://www.w3.org/1999/xlink" width="200" height="200"><path d="M707.776 708.416l3.84 3.84v236.544l-3.84 3.84h-64.384l-3.84-3.84-0.064-13.696H433.216v14.208l-3.776 3.84h-61.312l-3.84-3.84V712.32l3.84-3.84h339.648z m-538.88-476.8l3.84 3.84-0.448 57.408-3.84 3.84-82.048-0.064v564.864h82.048l3.84 3.84 0.384 57.408-3.84 3.84H25.6l-3.84-3.84V235.584L25.6 231.68h143.232z m829.44 0l3.84 3.84v687.36l-3.84 3.84h-143.232l-3.84-3.968 0.448-57.344 3.84-3.84h81.92V296.64h-81.92l-3.84-3.84-0.448-57.28 3.84-3.84H998.4z m-358.848 615.872H433.216v29.44h206.272v-29.44z m0-80.448H433.216v26.368h206.272v-26.368zM554.048 457.472l3.904 1.792c6.848 11.264 13.312 24.704 16.576 36.8l1.792 8.704h165.952l3.84 3.84v54.144l-3.84 3.84H671.36l12.544 2.752 2.688 5.312c-4.288 9.28-8.64 18.56-13.12 27.776l-9.92 19.84h103.04l3.84 3.84v54.656l-3.84 3.84H304.192l-3.84-3.84v-54.592l3.84-3.84h107.776l-1.728-5.76a287.744 287.744 0 0 0-7.872-21.824l-4.544-10.56-4.8-9.92 2.688-5.504 11.2-2.176H333.056l-3.84-3.84v-54.08l3.84-3.84 168.32-0.064-1.344-3.712-3.712-9.088-4.224-9.344-4.736-9.28 2.816-5.632 63.872-10.24z m54.208 109.12H464.576l1.024 1.792c8.96 15.68 16.128 33.728 17.92 47.424l0.576 6.528 102.656 2.368c7.36-17.152 14.336-35.52 19.52-51.456l1.92-6.656zM282.432 114.304l3.584 2.624 37.44 109.504 7.488 24.576 4.928 17.536 1.536 6.784v0.64l13.888-54.656 34.56-107.008h56.576l2.496 3.584 3.648-3.584h58.496l3.84 3.84v224.576l-3.84 3.84h-58.496l-3.84-3.84-0.064-219.52-78.464 227.712c-20.992 56.32-46.016 82.688-89.088 85.632l-8.32 0.256c-9.6 0-17.152-0.768-24.576-2.56l-7.488-2.048-2.56-4.48 10.88-45.376 4.8-2.816a55.04 55.04 0 0 0 14.528 2.688c17.088 0 28.928-8.768 35.968-24.96l6.592-17.152L219.456 119.68l3.584-5.312h59.392z m414.4-5.568c46.592 0 70.656 29.696 72.96 84.672l0.256 9.408v139.904l-3.84 3.84h-58.944l-3.84-3.84V209.984c0-31.872-7.808-43.008-27.84-43.008-13.504 0-22.848 4.48-36.8 16l-6.272 5.44v154.304l-3.84 3.84h-58.56l-3.84-3.84V118.144l3.84-3.84h49.408l2.56 3.328 0.128 26.368-1.024 1.152c24.576-24.064 47.552-36.352 75.648-36.352v-0.064zM543.232 30.528l3.84 3.84v38.144l-3.84 3.84H412.48l-3.84-3.84V34.368l3.84-3.84h130.688z" fill="#ffffff" p-id="1817"></path></svg>