<?xml version="1.0" standalone="no"?><!DOCTYPE svg PUBLIC "-//W3C//DTD SVG 1.1//EN" "http://www.w3.org/Graphics/SVG/1.1/DTD/svg11.dtd"><svg t="1740141882801" class="icon" viewBox="0 0 1024 1024" version="1.1" xmlns="http://www.w3.org/2000/svg" p-id="1005" xmlns:xlink="http://www.w3.org/1999/xlink" width="200" height="200"><path d="M946.010505 0H77.989495A67.749495 67.749495 0 0 0 10.343434 67.697778v888.604444a67.749495 67.749495 0 0 0 67.646061 67.646061h868.02101A67.749495 67.749495 0 0 0 1013.656566 956.302222V67.697778A67.749495 67.749495 0 0 0 946.010505 0zM941.252525 951.59596H82.747475V72.40404h858.50505z" fill="#ffffff" p-id="1006"></path><path d="M397.239596 532.221414h401.221818a36.20202 36.20202 0 0 0 0-72.40404H397.239596a36.20202 36.20202 0 0 0 0 72.40404zM397.239596 286.875152h401.221818a36.20202 36.20202 0 0 0 0-72.404041H397.239596a36.20202 36.20202 0 0 0 0 72.404041zM397.239596 777.257374h401.221818a36.20202 36.20202 0 0 0 0-72.404041H397.239596a36.20202 36.20202 0 0 0 0 72.404041z" fill="#ffffff" p-id="1007"></path><path d="M222.487273 250.673131m-36.20202 0a36.20202 36.20202 0 1 0 72.40404 0 36.20202 36.20202 0 1 0-72.40404 0Z" fill="#ffffff" p-id="1008"></path><path d="M222.487273 495.864242m-36.20202 0a36.20202 36.20202 0 1 0 72.40404 0 36.20202 36.20202 0 1 0-72.40404 0Z" fill="#ffffff" p-id="1009"></path><path d="M222.487273 741.055354m-36.20202 0a36.20202 36.20202 0 1 0 72.40404 0 36.20202 36.20202 0 1 0-72.40404 0Z" fill="#ffffff" p-id="1010"></path></svg>