<?xml version="1.0" standalone="no"?><!DOCTYPE svg PUBLIC "-//W3C//DTD SVG 1.1//EN" "http://www.w3.org/Graphics/SVG/1.1/DTD/svg11.dtd"><svg t="1740551431329" class="icon" viewBox="0 0 1024 1024" version="1.1" xmlns="http://www.w3.org/2000/svg" p-id="1435" xmlns:xlink="http://www.w3.org/1999/xlink" width="200" height="200"><path d="M1022.89668 714.398l-129.17-391.35c-3.776-11.444-16.118-17.66-27.56-13.884l-390.94 129.03c5.874-54.872-10.24-138.334-157.81-150.094-73.224-4.598-123.738-35.278-138.59-84.17C160.29268 142.92 197.70668 65.966 276.90268 0h-58.916C149.64468 69.836 120.29268 148.852 140.55268 215.554c19.978 65.772 83.53 106.764 174.356 112.466 128.426 7.902 125.854 87.276 117.484 124.308L14.98668 590.096c-11.444 3.778-17.658 16.12-13.88 27.562l129.162 391.352c3.78 11.446 16.122 17.66 27.562 13.886l851.18-280.932c11.446-3.778 17.66-16.12 13.886-27.566z m-220.32-326.434l51.026-16.842a2.344 2.344 0 0 1 2.96 1.494l16.838 51.016a2.346 2.346 0 0 1-1.488 2.964l-51.024 16.842a2.344 2.344 0 0 1-2.96-1.494l-16.84-51.024a2.346 2.346 0 0 1 1.488-2.956z m-92.574 30.556l51.022-16.844a2.34 2.34 0 0 1 2.958 1.494l16.84 51.02a2.344 2.344 0 0 1-1.488 2.962l-51.024 16.84a2.346 2.346 0 0 1-2.96-1.49l-16.84-51.024a2.344 2.344 0 0 1 1.492-2.958z m-7.46 109.54l16.84 51.02a2.336 2.336 0 0 1-1.488 2.958l-51.028 16.842a2.342 2.342 0 0 1-2.958-1.49l-16.84-51.024a2.344 2.344 0 0 1 1.492-2.958l51.022-16.844a2.346 2.346 0 0 1 2.96 1.496z m-49.372 168.93l-51.026 16.84a2.34 2.34 0 0 1-2.958-1.494l-16.842-51.02a2.346 2.346 0 0 1 1.49-2.96l51.026-16.844a2.346 2.346 0 0 1 2.96 1.492l16.84 51.024a2.348 2.348 0 0 1-1.49 2.962z m-35.746-247.918l51.024-16.84a2.34 2.34 0 0 1 2.958 1.49l16.838 51.024a2.34 2.34 0 0 1-1.488 2.96l-51.022 16.842a2.342 2.342 0 0 1-2.96-1.494l-16.84-51.022a2.346 2.346 0 0 1 1.49-2.96z m-7.458 109.542l16.842 51.024a2.346 2.346 0 0 1-1.492 2.96l-51.026 16.838a2.344 2.344 0 0 1-2.96-1.49l-16.836-51.022a2.332 2.332 0 0 1 1.488-2.958l51.026-16.844a2.344 2.344 0 0 1 2.958 1.492z m-49.374 168.928l-51.022 16.84a2.342 2.342 0 0 1-2.96-1.492l-16.84-51.022a2.344 2.344 0 0 1 1.49-2.96l51.024-16.838a2.338 2.338 0 0 1 2.958 1.49l16.844 51.02a2.348 2.348 0 0 1-1.494 2.962z m-35.744-247.914l51.026-16.842a2.346 2.346 0 0 1 2.958 1.49l16.844 51.026a2.344 2.344 0 0 1-1.492 2.958l-51.026 16.84a2.342 2.342 0 0 1-2.96-1.492l-16.838-51.024a2.334 2.334 0 0 1 1.488-2.956z m-7.458 109.54l16.838 51.024a2.338 2.338 0 0 1-1.492 2.958l-51.022 16.84a2.34 2.34 0 0 1-2.96-1.488l-16.84-51.02a2.344 2.344 0 0 1 1.492-2.96l51.026-16.842a2.34 2.34 0 0 1 2.958 1.488z m-49.374 168.93l-51.022 16.842a2.352 2.352 0 0 1-2.964-1.494l-16.836-51.022a2.34 2.34 0 0 1 1.49-2.96l51.022-16.84a2.344 2.344 0 0 1 2.96 1.49l16.84 51.022a2.344 2.344 0 0 1-1.49 2.962z m18.24-263.266l16.838 51.022a2.344 2.344 0 0 1-1.49 2.962l-51.024 16.844a2.346 2.346 0 0 1-2.96-1.494l-16.84-51.024a2.34 2.34 0 0 1 1.494-2.958l51.022-16.84a2.344 2.344 0 0 1 2.96 1.488z m-61.444 124.892l16.84 51.022a2.34 2.34 0 0 1-1.492 2.958l-51.02 16.84a2.34 2.34 0 0 1-2.96-1.49l-16.842-51.024a2.344 2.344 0 0 1 1.494-2.958l51.022-16.84a2.344 2.344 0 0 1 2.958 1.492z m-49.37 168.93l-51.026 16.842a2.346 2.346 0 0 1-2.958-1.496l-16.84-51.024a2.344 2.344 0 0 1 1.486-2.96l51.026-16.836a2.338 2.338 0 0 1 2.958 1.492l16.84 51.02a2.344 2.344 0 0 1-1.486 2.962z m-35.744-247.918l51.022-16.838a2.34 2.34 0 0 1 2.958 1.492l16.84 51.02a2.348 2.348 0 0 1-1.49 2.962l-51.022 16.838a2.346 2.346 0 0 1-2.962-1.492l-16.84-51.022a2.34 2.34 0 0 1 1.494-2.96z m-7.466 109.546l16.84 51.02a2.338 2.338 0 0 1-1.486 2.958l-51.026 16.842a2.34 2.34 0 0 1-2.956-1.492l-16.842-51.022a2.348 2.348 0 0 1 1.488-2.96l51.026-16.838a2.334 2.334 0 0 1 2.956 1.492z m-85.114-78.99l51.022-16.84a2.34 2.34 0 0 1 2.958 1.492l16.84 51.022a2.34 2.34 0 0 1-1.486 2.96l-51.026 16.84a2.344 2.344 0 0 1-2.958-1.494l-16.838-51.024a2.338 2.338 0 0 1 1.488-2.956z m-7.46 109.54l16.84 51.024a2.342 2.342 0 0 1-1.488 2.958l-51.026 16.846a2.346 2.346 0 0 1-2.958-1.49l-16.842-51.026a2.346 2.346 0 0 1 1.492-2.96l51.024-16.84a2.34 2.34 0 0 1 2.958 1.488z m-85.116-78.984l51.022-16.84a2.344 2.344 0 0 1 2.96 1.49l16.84 51.024a2.34 2.34 0 0 1-1.488 2.958l-51.026 16.844a2.346 2.346 0 0 1-2.96-1.494l-16.84-51.022a2.34 2.34 0 0 1 1.492-2.96z m-77.23 84.534l-16.838-51.022a2.34 2.34 0 0 1 1.488-2.958l51.026-16.842c1.226-0.4 2.554 0.264 2.958 1.492l16.842 51.026a2.344 2.344 0 0 1-1.492 2.958l-51.026 16.842a2.344 2.344 0 0 1-2.958-1.496z m31.136 94.336l-16.838-51.024a2.34 2.34 0 0 1 1.488-2.956l51.026-16.842a2.346 2.346 0 0 1 2.96 1.49l16.84 51.024a2.346 2.346 0 0 1-1.492 2.958l-51.024 16.838a2.334 2.334 0 0 1-2.96-1.488z m27.852 84.392l-16.842-51.02a2.344 2.344 0 0 1 1.492-2.96l51.024-16.842a2.346 2.346 0 0 1 2.96 1.492l16.84 51.022a2.35 2.35 0 0 1-1.488 2.962l-51.028 16.84a2.34 2.34 0 0 1-2.958-1.494z m85.12 78.986l-51.024 16.84a2.34 2.34 0 0 1-2.96-1.488l-16.842-51.022a2.348 2.348 0 0 1 1.492-2.96l51.026-16.844c1.226-0.4 2.552 0.262 2.958 1.492l16.84 51.024a2.34 2.34 0 0 1-1.49 2.958z m7.458-109.54l-16.84-51.026a2.336 2.336 0 0 1 1.488-2.956l51.028-16.842a2.344 2.344 0 0 1 2.958 1.49l16.84 51.022a2.348 2.348 0 0 1-1.49 2.96l-51.028 16.844a2.34 2.34 0 0 1-2.956-1.492z m456.534-43.598l-423.55 139.792a2.342 2.342 0 0 1-2.958-1.492l-16.842-51.022a2.346 2.346 0 0 1 1.492-2.96l423.552-139.792a2.34 2.34 0 0 1 2.96 1.49l16.84 51.02a2.346 2.346 0 0 1-1.494 2.964z m6.352-109.176l-16.84-51.024a2.338 2.338 0 0 1 1.488-2.958l51.028-16.842a2.34 2.34 0 0 1 2.956 1.49l16.838 51.024a2.34 2.34 0 0 1-1.484 2.96l-51.028 16.84a2.338 2.338 0 0 1-2.958-1.49z m85.116 78.984l-51.024 16.842a2.344 2.344 0 0 1-2.958-1.49l-16.844-51.022a2.342 2.342 0 0 1 1.492-2.96l51.026-16.838a2.336 2.336 0 0 1 2.958 1.488l16.838 51.022a2.334 2.334 0 0 1-1.488 2.958z m7.458-109.54l-16.84-51.024a2.346 2.346 0 0 1 1.49-2.96l51.026-16.838a2.34 2.34 0 0 1 2.958 1.492l16.836 51.02a2.336 2.336 0 0 1-1.486 2.96l-51.022 16.846a2.35 2.35 0 0 1-2.962-1.496z m85.12 78.984l-51.024 16.844a2.35 2.35 0 0 1-2.958-1.492l-16.842-51.024a2.35 2.35 0 0 1 1.49-2.962l51.026-16.838a2.348 2.348 0 0 1 2.958 1.492l16.84 51.02a2.34 2.34 0 0 1-1.49 2.96z m7.456-109.538l-27.12-82.168-90.35 29.824a2.348 2.348 0 0 1-2.96-1.492l-16.84-51.024a2.348 2.348 0 0 1 1.492-2.96l143.602-47.392a2.346 2.346 0 0 1 2.96 1.492l44.692 135.408a2.346 2.346 0 0 1-1.49 2.964l-51.024 16.838a2.344 2.344 0 0 1-2.962-1.49z m85.12 78.986l-51.024 16.838a2.346 2.346 0 0 1-2.96-1.49l-16.838-51.022a2.34 2.34 0 0 1 1.492-2.958l51.022-16.84a2.346 2.346 0 0 1 2.96 1.488l16.84 51.022a2.348 2.348 0 0 1-1.492 2.962z" fill="#ffffff" p-id="1436"></path></svg>