<?xml version="1.0" standalone="no"?><!DOCTYPE svg PUBLIC "-//W3C//DTD SVG 1.1//EN" "http://www.w3.org/Graphics/SVG/1.1/DTD/svg11.dtd"><svg t="1740383861087" class="icon" viewBox="0 0 1024 1024" version="1.1" xmlns="http://www.w3.org/2000/svg" p-id="1217" xmlns:xlink="http://www.w3.org/1999/xlink" width="200" height="200"><path d="M950.656 874.88H148.032V137.472A9.408 9.408 0 0 0 138.688 128H73.344A9.408 9.408 0 0 0 64 137.472v813.056c0 5.248 4.224 9.472 9.344 9.472h877.312c5.12 0 9.344-4.224 9.344-9.472v-66.176a9.408 9.408 0 0 0-9.344-9.472zM250.688 780.352h65.28c5.12 0 9.344-4.224 9.344-9.472V600.704a9.408 9.408 0 0 0-9.344-9.408h-65.28a9.408 9.408 0 0 0-9.344 9.408v170.24c0 5.12 4.16 9.408 9.344 9.408z m177.28 0h65.344c5.12 0 9.344-4.224 9.344-9.472V392.704a9.408 9.408 0 0 0-9.344-9.408h-65.28a9.408 9.408 0 0 0-9.344 9.408v378.24c0 5.12 4.16 9.408 9.344 9.408z m177.344 0h65.344c5.12 0 9.344-4.224 9.344-9.472V484.928a9.408 9.408 0 0 0-9.344-9.472H605.44a9.408 9.408 0 0 0-9.344 9.472v285.952c0 5.248 4.16 9.472 9.28 9.472z m177.344 0h65.344c5.12 0 9.344-4.224 9.344-9.472V298.24a9.408 9.408 0 0 0-9.344-9.472h-65.28a9.408 9.408 0 0 0-9.408 9.472v472.704c0 5.248 4.224 9.472 9.344 9.472z" fill="#ffffff" p-id="1218"></path></svg>