<?xml version="1.0" standalone="no"?><!DOCTYPE svg PUBLIC "-//W3C//DTD SVG 1.1//EN" "http://www.w3.org/Graphics/SVG/1.1/DTD/svg11.dtd"><svg t="1744118130004" class="icon" viewBox="0 0 1024 1024" version="1.1" xmlns="http://www.w3.org/2000/svg" p-id="1816" xmlns:xlink="http://www.w3.org/1999/xlink" width="200" height="200"><path d="M506.197 519.233c53.896 50.998 55.87 135.642 4.399 189.044-51.471 53.414-136.885 55.367-190.781 4.369-53.896-50.997-55.871-135.641-4.4-189.044C366.875 470.189 452.29 468.236 506.197 519.233L506.197 519.233zM345.442 552.016c-35.64 36.977-34.273 95.57 3.042 130.871 37.315 35.312 96.444 33.954 132.084-3.012 35.63-36.977 34.263-95.57-3.053-130.882C440.211 513.683 381.072 515.039 345.442 552.016L345.442 552.016zM542.988 347.007l96.361-99.98c-24.887-23.541-25.792-62.593-2.035-87.254s63.169-25.555 88.046-2.015l55.408-49.888c0 0 38.802-35.912 95.293 17.969C947 193.5 912.01 231.884 912.01 231.884L678.115 474.866c59.972 110.631 44.85 251.329-47.41 347.064-34.674 35.979-76.276 61.298-120.726 76.234l-1.028-43.524c33.646-13.24 65.091-33.481 91.726-61.123 76.203-79.072 91.232-193.649 46.927-286.99l-21.906-36.842 233.433-242.242c0 0 32.438-30.606-10.297-67.943-39.916-34.875-64.766-3.079-64.766-3.079l-57.352 59.509-30.026-28.413c-8.296-7.854-21.434-7.556-29.349 0.668-7.926 8.224-7.628 21.228 0.679 29.082l30.026 28.423L549.516 399.814l-37.038-21.146c-96.126-39.546-210.94-19.387-287.154 59.695-98.963 102.704-95.18 265.474 8.47 363.553 31.888 30.171 69.553 50.638 109.263 61.606l0.977 42.476c-50.504-11.729-98.685-36.267-138.91-74.333C84.892 717.91 80.493 529.082 195.296 409.95 287.567 314.205 428.688 292.75 542.988 347.007L542.988 347.007zM542.988 347.007" fill="#ffffff" p-id="1817"></path></svg>