<?xml version="1.0" standalone="no"?><!DOCTYPE svg PUBLIC "-//W3C//DTD SVG 1.1//EN" "http://www.w3.org/Graphics/SVG/1.1/DTD/svg11.dtd"><svg t="1740141785968" class="icon" viewBox="0 0 1029 1024" version="1.1" xmlns="http://www.w3.org/2000/svg" p-id="941" xmlns:xlink="http://www.w3.org/1999/xlink" width="200.9765625" height="200"><path d="M153.6 102.4h555.8784l88.6784-51.2H153.6a102.4 102.4 0 0 0-102.4 102.4v328.8576l51.2-29.5424V153.6q0-21.1968 15.0016-36.1984T153.6 102.4z m666.7264 383.744l-162.8672-298.1376 54.7328-33.3312 5.888-3.584 79.0016 144.5376 27.6992-102.3488 81.8176-49.8688-43.3152 150.272L1024 358.4l-73.216 48.1792-106.9568-45.1584-3.6864 13.0048 40.8576 74.752-60.672 36.9664z m-147.0976 89.7536l-118.8864-217.6 60.2624-36.7616 4.9152 9.0112 1.024-2.6624q7.7824-21.8624 28.5184-34.5088 16.384-10.0352 31.232-10.9568l7.0656-0.4608 34.6624 63.4368-14.6944 3.5328q-13.5168 3.2768-25.8048 10.752-12.6464 7.68-16.7936 24.1664V384q-5.3248 19.456 6.1952 40.6016l62.5664 114.5344-60.2624 36.7616zM481.9968 478.2592q9.6256 2.2016 17.3056 15.2064l-31.0272 20.1216q-43.3664 28.1088-58.1632 62.3104-17.408 37.888 3.7888 76.7488 15.872 29.0304 47.104 35.5328 29.7472 6.144 62.3616-13.7216 26.112-15.872 40.96-37.888l0.1536-0.256q4.864-7.5264 8.3456-15.4112l6.656 12.1856 57.7536-35.2256-74.24-135.8848q-21.9648-40.1408-53.9648-49.7664-36.1472-11.3664-81.92 16.5888-39.0144 23.7568-53.248 52.224-18.5344 34.1504-5.0176 75.4688l4.096 12.544 62.976-31.5904-2.8672-9.5744q-3.7376-12.4416 2.0992-23.3472l0.0512-0.0512 0.1024-0.2048q4.7104-9.4208 19.6096-18.5344 16.2304-9.9328 27.0848-7.4752z m-15.104 109.056c4.3008-9.8304 13.9264-19.968 29.7984-30.208l33.28-21.6064 3.0208 5.5808c7.6288 13.9264 8.6528 28.5696 3.6864 43.8272a68.096 68.096 0 0 1-30.1568 36.352 34.9184 34.9184 0 0 1-23.0912 5.5808 17.6128 17.6128 0 0 1-14.2336-9.728 36.3008 36.3008 0 0 1-4.9664-17.5616c0-4.1984 0.9216-8.2432 2.6624-12.288z m-202.3936 25.9584q-10.7008-3.328-27.8528 7.168-10.9056 6.656-13.2608 19.712l-0.0512 0.4096-0.0512 0.1536q-3.072 13.568 6.7072 31.5392l71.3216 130.56-60.6208 36.9664-71.9872-131.6864q-10.24-18.7904-21.6064-22.9888-10.3424-3.7376-24.2176 4.7104-13.2096 8.0896-15.1552 23.3984v0.3072l-0.0512 0.1024q-2.6624 16.3328 6.1952 32.5632l70.0928 128.2048-60.6208 37.0176-118.9376-217.6 60.672-37.0176 4.4544 8.192q11.6224-25.088 33.28-38.2976 38.5024-23.552 73.4208-10.752 4.096-18.432 12.544-31.232 10.1376-16.6912 31.3344-29.6448 33.024-20.1216 67.84-10.24h0.256l0.0512 0.0512q34.6112 10.9568 54.272 47.0016l76.1856 139.3152-60.672 37.0176-72.192-132.096q-10.5472-19.456-21.3504-22.8352zM870.4 972.8H225.792l88.7296-51.2H870.4q21.1968 0 36.1984-15.0016T921.6 870.4v-299.3152l51.2-29.5424V870.4a102.4 102.4 0 0 1-102.4 102.4z" fill="#ffffff" p-id="942"></path><path d="M104.96 153.6q0-20.1216 14.2336-34.4064 14.2336-14.2336 34.4064-14.2336h556.544l97.5872-56.32H153.6q-43.52 0-74.24 30.72T48.64 153.6v333.312l56.32-32.512V153.6zM153.6 99.84q-22.272 0-37.9904 15.7696-15.7696 15.7184-15.7696 37.9904v297.8304l-46.08 26.624V153.6q0-41.3696 29.2352-70.6048T153.6 53.76h635.0336l-79.8208 46.08H153.6z m665.8048 389.888l62.9248-38.4 2.048-1.2288-41.472-75.9808 2.56-9.216 105.5744 44.544 78.4384-51.6096-163.1232-65.6896 44.544-154.368-88.32 53.8624-26.2656 97.1776-77.312-141.312-8.192 4.9664-56.7808 34.6112 165.376 302.6432z m58.1632-41.472l-40.192-73.5232 4.8128-16.7936 108.288 45.7728 68.0448-44.7488L860.16 295.168l42.1376-146.176-75.264 45.9776-29.1328 107.52-80.7936-147.8656-3.584 2.2016-52.6336 32.1024 160.4096 293.632 56.2688-34.304z m-205.312 131.2256l62.5664-38.144 2.0992-1.28-63.744-116.6848q-11.0592-20.224-5.9904-38.7072v-0.2048q3.9424-15.4112 15.6672-22.528 11.9808-7.3728 25.088-10.496l17.92-4.352-37.0176-67.7888-8.704 0.5632q-15.4624 1.024-32.4096 11.3664-20.224 12.3392-28.6208 33.2288l-3.584-6.5024-64.6144 39.424 121.344 222.1056z m57.856-41.2672l-61.44-112.384q-12.032-22.016-6.4512-42.496v-0.1536q4.4544-17.408 17.92-25.6512 12.6976-7.7312 26.624-11.1104l11.4176-2.7648-32.256-59.0336-5.4784 0.3584q-14.1824 0.9216-30.0544 10.5984-19.968 12.1856-27.4432 33.1776v0.1024l-1.024 2.56-1.9456 5.3248-6.3488-11.6224-55.8592 34.0992 116.4288 213.0944 55.9104-34.0992zM437.6064 505.344q4.352-8.704 18.6368-17.408 15.36-9.4208 25.1904-7.168 7.7824 1.792 14.336 11.9296l-28.8768 18.7392q-16.7936 10.8544-29.3376 22.6304l-2.048-6.912q-3.4304-11.4176 1.8944-21.3504l0.0512-0.1024 0.1536-0.3584z m-4.8128 30.72l-58.368 29.3376-3.1744-9.728q-13.1584-40.2432 4.864-73.4208v-0.1024q13.9776-27.7504 52.3264-51.2 44.8-27.2896 79.872-16.2816 30.976 9.3184 52.4288 48.5376l73.0624 133.7344-53.3504 32.5632-7.8848-14.3872-2.048 4.7616q-3.4304 7.68-8.192 15.0528l-0.1024 0.2048q-14.592 21.504-40.192 37.1712-31.744 19.3536-60.5184 13.3632-30.0544-6.2464-45.3632-34.304-20.5824-37.6832-3.7376-74.3936v-0.0512q14.5408-33.536 57.2416-61.184l33.0752-21.4528-1.2288-2.0992q-8.2432-13.9776-18.944-16.384-11.8272-2.7136-28.9792 7.7824-15.5648 9.472-20.5824 19.5584l-0.0512 0.1024-0.0512 0.1024q-6.2976 11.776-2.304 25.2416l2.2016 7.5264z m-5.4272 8.4992l-55.9104 28.1088-5.0688-15.36q-13.824-42.3424 5.2224-77.4656 14.592-29.0816 54.1696-53.248 46.7968-28.5184 83.968-16.896 33.024 9.984 55.5008 51.0464l75.4176 138.0352-62.1568 37.888-5.5296-10.1376q-2.816 5.632-6.3488 11.1616l-0.1536 0.256q-15.2064 22.528-41.7792 38.7072-33.4336 20.4288-64.256 14.0288-32.3072-6.7584-48.7936-36.864-21.8112-39.936-3.8912-78.9504 6.8608-15.8208 19.6096-30.3104z m67.9424 10.4448q-23.7568 15.2576-30.72 31.232-2.8672 6.6048-2.9184 13.312 0 9.1648 5.2736 18.7904t16.128 11.008q12.4928 1.5872 24.7808-5.888 22.9376-14.0288 31.232-37.7344 7.936-24.32-3.84-45.8752l-4.4032-7.9872-35.5328 23.1424z m-26.0608 33.28q6.3488-14.592 28.8256-28.9792l30.9248-20.1216 1.7408 3.072q10.752 19.6608 3.4816 41.7792-7.68 22.016-29.0304 35.0208-10.752 6.6048-21.4528 5.2224-8.2944-1.024-12.288-8.3968-4.6592-8.4992-4.608-16.3328 0-5.632 2.4064-11.264z m475.392 356.352q30.72-30.72 30.72-74.24v-333.312l-56.32 32.512V870.4q0 20.1216-14.2336 34.4064-14.2848 14.2336-34.4064 14.2336H313.856l-97.5872 56.32H870.4q43.52 0 74.24-30.72z m-680.96-328.9088q9.8816 3.072 19.968 21.6064l73.472 134.4512 65.024-39.68-77.312-141.4144q-20.224-37.0176-55.808-48.2816h-0.1024l-0.2048-0.1024h-0.0512q-35.8912-10.1376-69.888 10.5984-21.6576 13.2096-32.2048 30.464-7.9872 12.1344-12.1856 29.184-34.816-11.3152-72.96 11.9296-20.2752 12.3904-32.0512 34.9184l-3.3792-6.144-65.024 39.6288 121.344 222.1056 65.024-39.68-71.168-130.3552q-8.4992-15.4624-5.9904-30.8736v-0.2048l0.1024-0.3584q1.7408-14.08 13.9264-21.504 12.8-7.8336 22.016-4.5056 10.4448 3.84 20.2752 21.8112l73.216 134.0416 65.024-39.68-72.4992-132.608q-9.3696-17.152-6.4512-29.7984v-0.2048l0.1024-0.4608q2.1504-11.9296 12.0832-18.0224 16.1792-9.8816 25.7024-6.8608z m706.56-69.7344V870.4q0 41.3696-29.2352 70.6048T870.4 970.24H235.3664l79.872-46.08H870.4q22.272 0 37.9904-15.7696 15.7696-15.7184 15.7696-37.9904v-297.8304l46.08-26.624z m-611.2256 218.624L288.1536 634.88q-11.1104-20.3264-22.8864-24.064-11.776-3.6864-29.952 7.424-11.8784 7.2704-14.4384 21.504l-0.0512 0.256v0.1024q-3.3792 14.5408 6.912 33.3824l70.144 128.4096-56.2176 34.304-70.656-129.3312q-10.752-19.6608-23.04-24.1664-11.4688-4.1984-26.4192 4.9664-14.2848 8.704-16.384 25.1904v0.3584q-2.816 17.152 6.4512 34.2016l68.9152 126.0544-56.2688 34.304L7.8336 694.784l56.2688-34.304 5.632 10.24 2.048-4.608q11.3664-24.4224 32.3072-37.2224 37.5296-22.8864 71.2704-10.5472l2.7648 1.024 0.6144-2.8672q3.9936-17.92 12.1344-30.2592v-0.0512l0.0512-0.0512q9.8816-16.2304 30.5664-28.8256 32-19.5584 65.6896-10.0352l0.256 0.1024h0.1024q33.5872 10.6496 52.7872 45.824l74.9568 137.1136-56.2688 34.304z" fill="#ffffff" p-id="943"></path></svg>